<svg width="23" height="18" viewBox="0 0 23 18" fill="none" xmlns="http://www.w3.org/2000/svg">
<path d="M5.48806 17.28C2.46406 17.28 0.664062 14.832 0.664062 11.592C0.664062 5.544 4.04806 1.944 9.37606 0L9.59206 0.791998C7.07206 2.16 3.32806 4.896 3.18406 9.504C3.97606 8.928 4.76806 8.712 5.48806 8.712C7.93606 8.712 9.73606 10.44 9.73606 12.816C9.73606 15.336 7.93606 17.28 5.48806 17.28ZM13.1201 11.592C13.1201 5.544 16.5041 1.944 21.8321 0L22.0481 0.791998C19.5281 2.16 15.7841 4.896 15.6401 9.504C16.4321 8.928 17.2241 8.712 17.9441 8.712C20.3921 8.712 22.1921 10.44 22.1921 12.816C22.1921 15.336 20.3921 17.28 17.9441 17.28C14.9201 17.28 13.1201 14.832 13.1201 11.592Z" fill="url(#paint0_linear_11958_3032)"/>
<path d="M5.48806 17.28C2.46406 17.28 0.664062 14.832 0.664062 11.592C0.664062 5.544 4.04806 1.944 9.37606 0L9.59206 0.791998C7.07206 2.16 3.32806 4.896 3.18406 9.504C3.97606 8.928 4.76806 8.712 5.48806 8.712C7.93606 8.712 9.73606 10.44 9.73606 12.816C9.73606 15.336 7.93606 17.28 5.48806 17.28ZM13.1201 11.592C13.1201 5.544 16.5041 1.944 21.8321 0L22.0481 0.791998C19.5281 2.16 15.7841 4.896 15.6401 9.504C16.4321 8.928 17.2241 8.712 17.9441 8.712C20.3921 8.712 22.1921 10.44 22.1921 12.816C22.1921 15.336 20.3921 17.28 17.9441 17.28C14.9201 17.28 13.1201 14.832 13.1201 11.592Z" fill="#B1A164"/>
<defs>
<linearGradient id="paint0_linear_11958_3032" x1="12.8217" y1="-27.6481" x2="12.8217" y2="135.552" gradientUnits="userSpaceOnUse">
<stop stop-color="white" stop-opacity="0"/>
<stop offset="1" stop-color="white"/>
</linearGradient>
</defs>
</svg>
