<svg width="23" height="18" viewBox="0 0 23 18" fill="none" xmlns="http://www.w3.org/2000/svg">
<path d="M17.5829 18C20.6069 18 22.4069 15.552 22.4069 12.312C22.4069 6.264 19.0229 2.664 13.6949 0.719999L13.4789 1.512C15.9989 2.88 19.7429 5.616 19.8869 10.224C19.0949 9.648 18.3029 9.432 17.5829 9.432C15.1349 9.432 13.3349 11.16 13.3349 13.536C13.3349 16.056 15.1349 18 17.5829 18ZM0.878906 13.536C0.878906 16.056 2.67891 18 5.12691 18C8.15091 18 9.95091 15.552 9.95091 12.312C9.95091 6.264 6.56691 2.664 1.23891 0.719999L1.02291 1.512C3.54291 2.88 7.28691 5.616 7.43091 10.224C6.63891 9.648 5.84691 9.432 5.12691 9.432C2.67891 9.432 0.878906 11.16 0.878906 13.536Z" fill="url(#paint0_linear_11958_3031)"/>
<path d="M17.5829 18C20.6069 18 22.4069 15.552 22.4069 12.312C22.4069 6.264 19.0229 2.664 13.6949 0.719999L13.4789 1.512C15.9989 2.88 19.7429 5.616 19.8869 10.224C19.0949 9.648 18.3029 9.432 17.5829 9.432C15.1349 9.432 13.3349 11.16 13.3349 13.536C13.3349 16.056 15.1349 18 17.5829 18ZM0.878906 13.536C0.878906 16.056 2.67891 18 5.12691 18C8.15091 18 9.95091 15.552 9.95091 12.312C9.95091 6.264 6.56691 2.664 1.23891 0.719999L1.02291 1.512C3.54291 2.88 7.28691 5.616 7.43091 10.224C6.63891 9.648 5.84691 9.432 5.12691 9.432C2.67891 9.432 0.878906 11.16 0.878906 13.536Z" fill="#B1A164"/>
<defs>
<linearGradient id="paint0_linear_11958_3031" x1="12.8207" y1="46.152" x2="12.8207" y2="-117.048" gradientUnits="userSpaceOnUse">
<stop stop-color="white" stop-opacity="0"/>
<stop offset="1" stop-color="white"/>
</linearGradient>
</defs>
</svg>
